<svg width="100" height="100" viewBox="0 0 100 100" fill="none" xmlns="http://www.w3.org/2000/svg">
<g clip-path="url(#clip0)">
<circle cx="50" cy="50" r="50" fill="#9F3030"/>
<path d="M24.8903 76L25.2103 74.32L26.3303 73.92C28.4636 73.28 29.717 71.8667 30.0903 69.68L34.1703 47.92C34.7036 44.9333 35.237 41.8667 35.7703 38.72C36.357 35.5733 36.917 32.48 37.4503 29.44C37.8236 27.2533 36.9703 25.7867 34.8903 25.04L34.0103 24.8L34.4103 23.12H54.3303C60.2503 23.12 64.6503 24.24 67.5303 26.48C70.4103 28.6667 71.8503 31.6533 71.8503 35.44C71.8503 38.7467 70.7036 41.7067 68.4103 44.32C66.117 46.88 62.837 48.72 58.5703 49.84L66.7303 69.92C67.477 71.8933 68.837 73.28 70.8103 74.08L71.6103 74.32L71.2103 76H57.4503L49.0503 51.6H43.7703C43.237 54.3733 42.7036 57.28 42.1703 60.32C41.6903 63.36 41.157 66.5067 40.5703 69.76C40.197 71.84 41.0503 73.2533 43.1303 74L44.0903 74.32L43.7703 76H24.8903ZM44.2503 49.28H48.4903C52.8636 49.2267 56.117 47.9733 58.2503 45.52C60.437 43.0667 61.5303 39.76 61.5303 35.6C61.5303 28.8267 58.4903 25.44 52.4103 25.44H48.7303L44.2503 49.28Z" fill="white"/>
</g>
<defs>
<clipPath id="clip0">
<rect width="100" height="100" fill="white"/>
</clipPath>
</defs>
</svg>
